<svg width="13" height="13" viewBox="0 0 13 13" fill="none" xmlns="http://www.w3.org/2000/svg">
<path d="M13 1.625C13 1.7439 12.9604 1.82317 12.8811 1.90244L8.36281 6.42073C8.28354 6.5 8.28354 6.57927 8.36281 6.65854L12.8018 11.0976C12.8811 11.1768 12.9207 11.2561 12.9207 11.375C12.9207 11.4939 12.8811 11.5732 12.8018 11.6524L11.6524 12.8018C11.5732 12.8811 11.4939 12.9207 11.375 12.9207C11.2561 12.9207 11.1768 12.8811 11.0976 12.8018L6.65854 8.36281C6.57927 8.28354 6.5 8.28354 6.42073 8.36281L1.90244 12.8811C1.82317 12.9604 1.7439 13 1.625 13C1.5061 13 1.42683 12.9604 1.34756 12.8811L0.198171 11.7713C0.118902 11.6921 0.0792683 11.6128 0.0792683 11.4939C0.0792683 11.375 0.118902 11.2957 0.198171 11.2165L4.7561 6.65854C4.83537 6.57927 4.83537 6.5 4.7561 6.42073L0.118902 1.78354C0.0396342 1.70427 0 1.625 0 1.5061C0 1.3872 0.0396342 1.30793 0.118902 1.22866L1.22866 0.118902C1.30793 0.0396342 1.3872 0 1.5061 0C1.625 0 1.70427 0.0396342 1.78354 0.118902L6.42073 4.7561C6.5 4.83537 6.57927 4.83537 6.65854 4.7561L11.2165 0.198171C11.2957 0.118902 11.375 0.0792683 11.4939 0.0792683C11.6128 0.0792683 11.6921 0.118902 11.7713 0.198171L12.8811 1.34756C12.9604 1.42683 13 1.5061 13 1.625Z" fill="#555555"/>
</svg>
