<svg width="316" height="64" viewBox="0 0 316 64" fill="none" xmlns="http://www.w3.org/2000/svg">
<path d="M23.8135 63.7942C23.642 63.7942 23.5219 63.717 23.4533 63.5627L20.2376 56.4367C20.2033 56.3681 20.1519 56.3337 20.0833 56.3337H17.6908C17.605 56.3337 17.5621 56.3766 17.5621 56.4624V63.4855C17.5621 63.5713 17.5278 63.6484 17.4592 63.717C17.4078 63.7685 17.3392 63.7942 17.2534 63.7942H14.2435C14.1578 63.7942 14.0806 63.7685 14.012 63.717C13.9605 63.6484 13.9348 63.5713 13.9348 63.4855V46.0949C13.9348 46.0091 13.9605 45.9405 14.012 45.8891C14.0806 45.8205 14.1578 45.7862 14.2435 45.7862H21.6011C22.6987 45.7862 23.6592 46.0091 24.4824 46.4551C25.3228 46.901 25.9659 47.5355 26.4118 48.3588C26.8749 49.182 27.1064 50.1338 27.1064 51.2143C27.1064 52.3806 26.8148 53.3839 26.2317 54.2242C25.6486 55.0475 24.834 55.6306 23.7878 55.9736C23.702 56.0079 23.6763 56.0679 23.7106 56.1537L27.2093 63.4341C27.2436 63.5027 27.2608 63.5541 27.2608 63.5884C27.2608 63.7256 27.1664 63.7942 26.9778 63.7942H23.8135ZM17.6908 48.899C17.605 48.899 17.5621 48.9419 17.5621 49.0276V53.4267C17.5621 53.5125 17.605 53.5554 17.6908 53.5554H21.0608C21.7812 53.5554 22.3643 53.341 22.8102 52.9122C23.2733 52.4835 23.5048 51.9261 23.5048 51.24C23.5048 50.554 23.2733 49.9966 22.8102 49.5679C22.3643 49.122 21.7812 48.899 21.0608 48.899H17.6908Z" fill="#1BA1BE"/>
<path d="M46.0986 48.5903C46.0986 48.676 46.0643 48.7532 45.9957 48.8218C45.9443 48.8733 45.8757 48.899 45.7899 48.899H37.3519C37.2661 48.899 37.2233 48.9419 37.2233 49.0276V53.0151C37.2233 53.1009 37.2661 53.1438 37.3519 53.1438H42.8829C42.9687 53.1438 43.0373 53.1781 43.0887 53.2467C43.1573 53.2981 43.1916 53.3667 43.1916 53.4525V55.9479C43.1916 56.0336 43.1573 56.1108 43.0887 56.1794C43.0373 56.2308 42.9687 56.2566 42.8829 56.2566H37.3519C37.2661 56.2566 37.2233 56.2994 37.2233 56.3852V60.5528C37.2233 60.6385 37.2661 60.6814 37.3519 60.6814H45.7899C45.8757 60.6814 45.9443 60.7157 45.9957 60.7843C46.0643 60.8358 46.0986 60.9044 46.0986 60.9901V63.4855C46.0986 63.5713 46.0643 63.6484 45.9957 63.717C45.9443 63.7685 45.8757 63.7942 45.7899 63.7942H33.9046C33.8189 63.7942 33.7417 63.7685 33.6731 63.717C33.6217 63.6484 33.5959 63.5713 33.5959 63.4855V46.0949C33.5959 46.0091 33.6217 45.9405 33.6731 45.8891C33.7417 45.8205 33.8189 45.7862 33.9046 45.7862H45.7899C45.8757 45.7862 45.9443 45.8205 45.9957 45.8891C46.0643 45.9405 46.0986 46.0091 46.0986 46.0949V48.5903Z" fill="#1BA1BE"/>
<path d="M58.8068 64C57.469 64 56.2942 63.7428 55.2823 63.2283C54.2705 62.6966 53.4901 61.9591 52.9413 61.0158C52.3925 60.0726 52.1181 58.9835 52.1181 57.7487V51.806C52.1181 50.5712 52.3925 49.4821 52.9413 48.5388C53.4901 47.5956 54.2705 46.8667 55.2823 46.3522C56.2942 45.8376 57.469 45.5804 58.8068 45.5804C60.1274 45.5804 61.285 45.8291 62.2797 46.3264C63.2916 46.8066 64.072 47.5012 64.6208 48.4102C65.1868 49.302 65.4697 50.3396 65.4697 51.523C65.4697 51.6774 65.3668 51.7717 65.161 51.806L62.1511 51.9861H62.0997C61.9282 51.9861 61.8424 51.8918 61.8424 51.7031C61.8424 50.7941 61.5594 50.0652 60.9935 49.5164C60.4446 48.9676 59.7157 48.6932 58.8068 48.6932C57.8806 48.6932 57.1346 48.9676 56.5686 49.5164C56.0198 50.0652 55.7454 50.7941 55.7454 51.7031V57.903C55.7454 58.7948 56.0198 59.5152 56.5686 60.064C57.1346 60.6128 57.8806 60.8872 58.8068 60.8872C59.7157 60.8872 60.4446 60.6128 60.9935 60.064C61.5594 59.5152 61.8424 58.7948 61.8424 57.903C61.8424 57.7144 61.9453 57.62 62.1511 57.62L65.161 57.7487C65.2468 57.7487 65.3154 57.7744 65.3668 57.8258C65.4354 57.8773 65.4697 57.9373 65.4697 58.0059C65.4697 59.1893 65.1868 60.2355 64.6208 61.1445C64.072 62.0534 63.2916 62.7566 62.2797 63.254C61.285 63.7513 60.1274 64 58.8068 64Z" fill="#1BA1BE"/>
<path d="M81.8673 63.7942C81.6958 63.7942 81.5757 63.717 81.5071 63.5627L78.2914 56.4367C78.2571 56.3681 78.2057 56.3337 78.1371 56.3337H75.7446C75.6588 56.3337 75.6159 56.3766 75.6159 56.4624V63.4855C75.6159 63.5713 75.5816 63.6484 75.513 63.717C75.4616 63.7685 75.393 63.7942 75.3072 63.7942H72.2973C72.2116 63.7942 72.1344 63.7685 72.0658 63.717C72.0143 63.6484 71.9886 63.5713 71.9886 63.4855V46.0949C71.9886 46.0091 72.0143 45.9405 72.0658 45.8891C72.1344 45.8205 72.2116 45.7862 72.2973 45.7862H79.6549C80.7525 45.7862 81.7129 46.0091 82.5362 46.4551C83.3765 46.901 84.0197 47.5355 84.4656 48.3588C84.9287 49.182 85.1602 50.1338 85.1602 51.2143C85.1602 52.3806 84.8686 53.3839 84.2855 54.2242C83.7024 55.0475 82.8878 55.6306 81.8416 55.9736C81.7558 56.0079 81.7301 56.0679 81.7644 56.1537L85.2631 63.4341C85.2974 63.5027 85.3146 63.5541 85.3146 63.5884C85.3146 63.7256 85.2202 63.7942 85.0316 63.7942H81.8673ZM75.7446 48.899C75.6588 48.899 75.6159 48.9419 75.6159 49.0276V53.4267C75.6159 53.5125 75.6588 53.5554 75.7446 53.5554H79.1146C79.835 53.5554 80.4181 53.341 80.864 52.9122C81.3271 52.4835 81.5586 51.9261 81.5586 51.24C81.5586 50.554 81.3271 49.9966 80.864 49.5679C80.4181 49.122 79.835 48.899 79.1146 48.899H75.7446Z" fill="#1BA1BE"/>
<path d="M98.1841 64C96.8635 64 95.6972 63.7428 94.6854 63.2283C93.6906 62.7137 92.9103 61.9934 92.3443 61.0673C91.7955 60.124 91.5211 59.0435 91.5211 57.8258V46.0949C91.5211 46.0091 91.5468 45.9405 91.5983 45.8891C91.6669 45.8205 91.7441 45.7862 91.8298 45.7862H94.8397C94.9255 45.7862 94.9941 45.8205 95.0455 45.8891C95.1141 45.9405 95.1484 46.0091 95.1484 46.0949V57.8516C95.1484 58.7605 95.4228 59.498 95.9716 60.064C96.5376 60.6128 97.2751 60.8872 98.1841 60.8872C99.093 60.8872 99.8219 60.6128 100.371 60.064C100.937 59.498 101.22 58.7605 101.22 57.8516V46.0949C101.22 46.0091 101.245 45.9405 101.297 45.8891C101.365 45.8205 101.443 45.7862 101.528 45.7862H104.538C104.624 45.7862 104.693 45.8205 104.744 45.8891C104.813 45.9405 104.847 46.0091 104.847 46.0949V57.8258C104.847 59.0435 104.564 60.124 103.998 61.0673C103.449 61.9934 102.669 62.7137 101.657 63.2283C100.662 63.7428 99.5046 64 98.1841 64Z" fill="#1BA1BE"/>
<path d="M111.996 63.7942C111.911 63.7942 111.833 63.7685 111.765 63.717C111.713 63.6484 111.688 63.5713 111.688 63.4855V46.0949C111.688 46.0091 111.713 45.9405 111.765 45.8891C111.833 45.8205 111.911 45.7862 111.996 45.7862H115.006C115.092 45.7862 115.161 45.8205 115.212 45.8891C115.281 45.9405 115.315 46.0091 115.315 46.0949V63.4855C115.315 63.5713 115.281 63.6484 115.212 63.717C115.161 63.7685 115.092 63.7942 115.006 63.7942H111.996Z" fill="#1BA1BE"/>
<path d="M134.73 45.7862C134.816 45.7862 134.884 45.8205 134.936 45.8891C135.005 45.9405 135.039 46.0091 135.039 46.0949V48.616C135.039 48.7018 135.005 48.779 134.936 48.8476C134.884 48.899 134.816 48.9247 134.73 48.9247H130.125C130.039 48.9247 129.997 48.9676 129.997 49.0534V63.4855C129.997 63.5713 129.962 63.6484 129.894 63.717C129.842 63.7685 129.774 63.7942 129.688 63.7942H126.678C126.592 63.7942 126.515 63.7685 126.446 63.717C126.395 63.6484 126.369 63.5713 126.369 63.4855V49.0534C126.369 48.9676 126.326 48.9247 126.241 48.9247H121.764C121.679 48.9247 121.601 48.899 121.533 48.8476C121.481 48.779 121.456 48.7018 121.456 48.616V46.0949C121.456 46.0091 121.481 45.9405 121.533 45.8891C121.601 45.8205 121.679 45.7862 121.764 45.7862H134.73Z" fill="#1BA1BE"/>
<path d="M152.789 45.992C152.874 45.8548 152.994 45.7862 153.149 45.7862H156.159C156.244 45.7862 156.313 45.8205 156.364 45.8891C156.433 45.9405 156.467 46.0091 156.467 46.0949V63.4855C156.467 63.5713 156.433 63.6484 156.364 63.717C156.313 63.7685 156.244 63.7942 156.159 63.7942H153.149C153.063 63.7942 152.986 63.7685 152.917 63.717C152.866 63.6484 152.84 63.5713 152.84 63.4855V52.1405C152.84 52.0718 152.823 52.0375 152.789 52.0375C152.754 52.0375 152.72 52.0633 152.686 52.1147L149.959 56.3852C149.873 56.5224 149.753 56.591 149.599 56.591H148.081C147.926 56.591 147.806 56.5224 147.721 56.3852L144.994 52.1147C144.959 52.0633 144.925 52.0461 144.891 52.0633C144.856 52.0633 144.839 52.0976 144.839 52.1662V63.4855C144.839 63.5713 144.805 63.6484 144.736 63.717C144.685 63.7685 144.616 63.7942 144.531 63.7942H141.521C141.435 63.7942 141.358 63.7685 141.289 63.717C141.238 63.6484 141.212 63.5713 141.212 63.4855V46.0949C141.212 46.0091 141.238 45.9405 141.289 45.8891C141.358 45.8205 141.435 45.7862 141.521 45.7862H144.531C144.685 45.7862 144.805 45.8548 144.891 45.992L148.75 51.9861C148.801 52.089 148.853 52.089 148.904 51.9861L152.789 45.992Z" fill="#1BA1BE"/>
<path d="M175.963 48.5903C175.963 48.676 175.929 48.7532 175.861 48.8218C175.809 48.8733 175.741 48.899 175.655 48.899H167.217C167.131 48.899 167.088 48.9419 167.088 49.0276V53.0151C167.088 53.1009 167.131 53.1438 167.217 53.1438H172.748C172.834 53.1438 172.902 53.1781 172.954 53.2467C173.022 53.2981 173.056 53.3667 173.056 53.4525V55.9479C173.056 56.0336 173.022 56.1108 172.954 56.1794C172.902 56.2308 172.834 56.2566 172.748 56.2566H167.217C167.131 56.2566 167.088 56.2994 167.088 56.3852V60.5528C167.088 60.6385 167.131 60.6814 167.217 60.6814H175.655C175.741 60.6814 175.809 60.7157 175.861 60.7843C175.929 60.8358 175.963 60.9044 175.963 60.9901V63.4855C175.963 63.5713 175.929 63.6484 175.861 63.717C175.809 63.7685 175.741 63.7942 175.655 63.7942H163.769C163.684 63.7942 163.607 63.7685 163.538 63.717C163.486 63.6484 163.461 63.5713 163.461 63.4855V46.0949C163.461 46.0091 163.486 45.9405 163.538 45.8891C163.607 45.8205 163.684 45.7862 163.769 45.7862H175.655C175.741 45.7862 175.809 45.8205 175.861 45.8891C175.929 45.9405 175.963 46.0091 175.963 46.0949V48.5903Z" fill="#1BA1BE"/>
<path d="M192.685 46.0949C192.685 46.0091 192.711 45.9405 192.762 45.8891C192.831 45.8205 192.908 45.7862 192.994 45.7862H196.003C196.089 45.7862 196.158 45.8205 196.209 45.8891C196.278 45.9405 196.312 46.0091 196.312 46.0949V63.4855C196.312 63.5713 196.278 63.6484 196.209 63.717C196.158 63.7685 196.089 63.7942 196.003 63.7942H193.096C192.925 63.7942 192.805 63.7256 192.736 63.5884L186.073 52.5778C186.039 52.5263 186.005 52.5092 185.97 52.5263C185.936 52.5263 185.919 52.5606 185.919 52.6292L185.97 63.4855C185.97 63.5713 185.936 63.6484 185.867 63.717C185.816 63.7685 185.747 63.7942 185.662 63.7942H182.652C182.566 63.7942 182.489 63.7685 182.42 63.717C182.369 63.6484 182.343 63.5713 182.343 63.4855V46.0949C182.343 46.0091 182.369 45.9405 182.42 45.8891C182.489 45.8205 182.566 45.7862 182.652 45.7862H185.559C185.73 45.7862 185.85 45.8548 185.919 45.992L192.556 56.9512C192.59 57.0026 192.625 57.0283 192.659 57.0283C192.693 57.0112 192.711 56.9683 192.711 56.8997L192.685 46.0949Z" fill="#1BA1BE"/>
<path d="M215.736 45.7862C215.822 45.7862 215.89 45.8205 215.942 45.8891C216.011 45.9405 216.045 46.0091 216.045 46.0949V48.616C216.045 48.7018 216.011 48.779 215.942 48.8476C215.89 48.899 215.822 48.9247 215.736 48.9247H211.131C211.045 48.9247 211.003 48.9676 211.003 49.0534V63.4855C211.003 63.5713 210.968 63.6484 210.9 63.717C210.848 63.7685 210.78 63.7942 210.694 63.7942H207.684C207.598 63.7942 207.521 63.7685 207.452 63.717C207.401 63.6484 207.375 63.5713 207.375 63.4855V49.0534C207.375 48.9676 207.332 48.9247 207.247 48.9247H202.77C202.685 48.9247 202.607 48.899 202.539 48.8476C202.487 48.779 202.462 48.7018 202.462 48.616V46.0949C202.462 46.0091 202.487 45.9405 202.539 45.8891C202.607 45.8205 202.685 45.7862 202.77 45.7862H215.736Z" fill="#1BA1BE"/>
<path d="M243.653 45.7862C243.738 45.7862 243.807 45.8205 243.858 45.8891C243.927 45.9405 243.961 46.0091 243.961 46.0949V48.616C243.961 48.7018 243.927 48.779 243.858 48.8476C243.807 48.899 243.738 48.9247 243.653 48.9247H239.048C238.962 48.9247 238.919 48.9676 238.919 49.0534V63.4855C238.919 63.5713 238.885 63.6484 238.816 63.717C238.765 63.7685 238.696 63.7942 238.61 63.7942H235.6C235.515 63.7942 235.437 63.7685 235.369 63.717C235.317 63.6484 235.292 63.5713 235.292 63.4855V49.0534C235.292 48.9676 235.249 48.9247 235.163 48.9247H230.687C230.601 48.9247 230.524 48.899 230.455 48.8476C230.404 48.779 230.378 48.7018 230.378 48.616V46.0949C230.378 46.0091 230.404 45.9405 230.455 45.8891C230.524 45.8205 230.601 45.7862 230.687 45.7862H243.653Z" fill="#1BA1BE"/>
<path d="M259.924 63.7942C259.753 63.7942 259.641 63.7085 259.59 63.537L258.818 61.0158C258.784 60.9472 258.741 60.9129 258.689 60.9129H252.361C252.309 60.9129 252.267 60.9472 252.232 61.0158L251.486 63.537C251.435 63.7085 251.323 63.7942 251.152 63.7942H247.885C247.782 63.7942 247.705 63.7685 247.653 63.717C247.602 63.6484 247.593 63.5541 247.627 63.4341L253.184 46.0434C253.236 45.8719 253.347 45.7862 253.519 45.7862H257.558C257.729 45.7862 257.841 45.8719 257.892 46.0434L263.449 63.4341C263.466 63.4684 263.474 63.5112 263.474 63.5627C263.474 63.717 263.38 63.7942 263.191 63.7942H259.924ZM253.158 57.9545C253.141 58.0574 253.176 58.1088 253.261 58.1088H257.789C257.892 58.1088 257.926 58.0574 257.892 57.9545L255.577 50.3139C255.559 50.2453 255.534 50.2196 255.499 50.2367C255.465 50.2367 255.439 50.2625 255.422 50.3139L253.158 57.9545Z" fill="#1BA1BE"/>
<path d="M274.638 64C273.266 64 272.066 63.7856 271.037 63.3569C270.008 62.911 269.21 62.285 268.644 61.4789C268.095 60.6557 267.821 59.7038 267.821 58.6233V58.0574C267.821 57.9716 267.847 57.903 267.898 57.8516C267.967 57.783 268.044 57.7487 268.13 57.7487H271.062C271.148 57.7487 271.217 57.783 271.268 57.8516C271.337 57.903 271.371 57.9716 271.371 58.0574V58.4433C271.371 59.1293 271.688 59.7124 272.323 60.1926C272.957 60.6557 273.815 60.8872 274.896 60.8872C275.804 60.8872 276.482 60.6986 276.928 60.3212C277.374 59.9268 277.597 59.4466 277.597 58.8806C277.597 58.469 277.46 58.126 277.185 57.8516C276.911 57.56 276.533 57.3113 276.053 57.1055C275.59 56.8826 274.844 56.5824 273.815 56.2051C272.666 55.8107 271.688 55.4076 270.882 54.996C270.093 54.5844 269.424 54.027 268.876 53.3238C268.344 52.6035 268.078 51.7203 268.078 50.6741C268.078 49.6451 268.344 48.7447 268.876 47.9729C269.407 47.2011 270.145 46.6094 271.088 46.1978C272.031 45.7862 273.12 45.5804 274.355 45.5804C275.659 45.5804 276.816 45.8119 277.828 46.275C278.857 46.738 279.655 47.3898 280.221 48.2301C280.804 49.0534 281.095 50.0138 281.095 51.1114V51.4973C281.095 51.5831 281.061 51.6602 280.993 51.7288C280.941 51.7803 280.872 51.806 280.787 51.806H277.828C277.742 51.806 277.665 51.7803 277.597 51.7288C277.545 51.6602 277.52 51.5831 277.52 51.4973V51.2915C277.52 50.5712 277.219 49.9623 276.619 49.465C276.036 48.9505 275.23 48.6932 274.201 48.6932C273.395 48.6932 272.76 48.8647 272.297 49.2077C271.851 49.5507 271.628 50.0224 271.628 50.6226C271.628 51.0514 271.757 51.4116 272.014 51.7031C272.289 51.9947 272.683 52.2605 273.198 52.5006C273.729 52.7236 274.544 53.0323 275.642 53.4267C276.859 53.8727 277.811 54.2671 278.497 54.6101C279.2 54.9531 279.826 55.4676 280.375 56.1537C280.941 56.8225 281.224 57.6972 281.224 58.7777C281.224 60.3898 280.632 61.6676 279.449 62.6108C278.266 63.537 276.662 64 274.638 64Z" fill="#1BA1BE"/>
<path d="M287.931 63.7942C287.846 63.7942 287.768 63.7685 287.7 63.717C287.648 63.6484 287.623 63.5713 287.623 63.4855V46.0949C287.623 46.0091 287.648 45.9405 287.7 45.8891C287.768 45.8205 287.846 45.7862 287.931 45.7862H290.941C291.027 45.7862 291.096 45.8205 291.147 45.8891C291.216 45.9405 291.25 46.0091 291.25 46.0949V53.2981C291.25 53.3496 291.267 53.3839 291.301 53.401C291.336 53.401 291.37 53.3839 291.404 53.3496L297.347 45.9663C297.45 45.8462 297.579 45.7862 297.733 45.7862H301.129C301.266 45.7862 301.352 45.8291 301.386 45.9148C301.42 45.9834 301.403 46.0692 301.335 46.1721L295.598 53.5039C295.546 53.5725 295.538 53.6325 295.572 53.684L301.643 63.4341C301.678 63.537 301.695 63.597 301.695 63.6141C301.695 63.7342 301.609 63.7942 301.437 63.7942H298.042C297.87 63.7942 297.75 63.7256 297.681 63.5884L293.102 56.1794C293.085 56.1451 293.059 56.1279 293.025 56.1279C292.991 56.1279 292.957 56.1451 292.922 56.1794L291.301 58.2117C291.267 58.2803 291.25 58.3318 291.25 58.3661V63.4855C291.25 63.5713 291.216 63.6484 291.147 63.717C291.096 63.7685 291.027 63.7942 290.941 63.7942H287.931Z" fill="#1BA1BE"/>
<path d="M0 37.4224L14.5403 11.3607H7.57536L14.0238 0.299377H48.2851L43.3079 11.3607H25.4651L23.2582 15.6307H34.9656L31.8979 22.1068H19.9088L11.9891 37.4382H0V37.4224Z" fill="#1BA1BE"/>
<path d="M31.8978 37.4224L48.5981 0.299377H69.5398C72.0284 0.567243 73.8753 1.35508 75.0962 2.6629C76.3326 3.97071 76.99 5.71972 77.0526 7.90991C76.5831 11.2031 75.7848 13.7399 74.6423 15.5204C73.484 17.301 71.9815 18.7979 70.1503 19.9954C68.3034 21.1929 65.893 22.1383 62.9349 22.8316L64.2966 26.3769H83.235L80.0734 37.4382H56.8777L50.1632 25.1794L45.2017 37.4382H31.8978V37.4224ZM56.4864 9.54862L53.7161 16.4028H62.3245C62.7784 16.4028 63.3418 16.2137 64.0148 15.8513C64.6879 15.4889 65.3139 14.5593 65.8774 13.0624C66.3156 11.6443 66.3469 10.6989 65.9713 10.2419C65.5957 9.78497 65.22 9.56438 64.8444 9.56438H56.4864V9.54862Z" fill="#1BA1BE"/>
<path d="M121.065 19.0657C120.423 23.131 119.077 26.5975 116.98 29.4495C114.851 32.3172 112.081 34.4601 108.653 35.9098C105.194 37.3436 101.234 38.0684 96.8049 38.0684C92.3755 38.0684 88.76 37.3436 85.9897 35.894C83.235 34.4444 81.482 32.3015 80.6994 29.4652C79.9638 26.629 80.2142 23.1625 81.4507 19.0657C82.3898 15.9616 83.6263 13.2357 85.1914 10.8722C86.7253 8.50867 88.5409 6.52332 90.6069 4.91612C92.6572 3.30893 94.9267 2.0799 97.4466 1.24479C99.9509 0.409677 102.643 0 105.538 0C109.373 0 112.55 0.74057 115.07 2.20595C117.621 3.67134 119.406 5.83002 120.439 8.682C121.472 11.5497 121.691 15.0005 121.065 19.0657ZM93.6746 19.176C93.0642 21.5553 93.0329 23.6352 93.612 25.4C94.1911 27.1647 96.0067 28.0471 99.0274 28.0471C101.36 28.0471 103.206 27.5902 104.568 26.6605C105.914 25.7309 106.853 24.6752 107.37 23.4776C107.886 22.2801 108.371 20.8463 108.81 19.176C109.201 16.7968 109.091 14.7169 108.497 12.9363C107.918 11.1558 106.118 10.2734 103.097 10.2734C98.3231 10.2734 95.1928 13.2357 93.6746 19.176Z" fill="#1BA1BE"/>
<path d="M123.46 37.4224L127.091 11.3607H120.126L121.957 0.299377H139.111L147.845 14.1811L148.69 0.299377H159.161L158.394 37.4224H146.42L136.826 23.5407L135.464 37.4224H123.46V37.4224Z" fill="#1BA1BE"/>
<path d="M187.866 0.299377L188.867 11.3607H178.224L179.555 37.4382H167.581L167.3 11.3607H156.656L156.985 0.299377H187.866V0.299377Z" fill="#1BA1BE"/>
<path d="M184.407 27.732L183.765 18.4827H197.46L198.571 27.732H184.407Z" fill="#1BA1BE"/>
<path d="M202.484 37.4224L199.135 11.3607H192.17L191.027 0.299377H225.289L227.887 11.3607H210.044L210.764 15.6307H222.471L223.849 22.1068H211.86L212.58 26.3769H234.413L237.137 37.4382H202.484V37.4224Z" fill="#1BA1BE"/>
<path d="M237.09 37.4224L227.949 0.299377H238.42L252.491 14.1811L247.999 0.299377H267.376L271.79 11.3607H262.492L271.993 37.4382H260.02L245.072 23.5564L249.048 37.4382H237.09V37.4224Z" fill="#1BA1BE"/>
<path d="M281.838 37.4224L271.461 11.3607H264.496L260.38 0.299377H286.048C288.615 0.299377 291.072 0.693298 293.436 1.48114C295.799 2.26898 298.022 3.32468 300.072 4.66401C302.138 6.00334 304.251 7.81537 306.379 10.0844C308.524 12.3691 310.59 15.3314 312.546 18.9869C314.174 22.3589 315.176 25.2424 315.536 27.6059C315.88 29.9694 315.645 31.8445 314.831 33.2153C314.002 34.5862 312.671 35.6419 310.825 36.3982C308.962 37.1545 306.333 37.5012 302.936 37.4224H281.838V37.4224ZM281.853 9.50135L290.055 28.1732H296.848C298.382 28.1732 299.446 27.8423 300.072 27.1647C300.682 26.4872 301.027 25.6206 301.105 24.5649C301.183 23.5092 300.62 21.6183 299.446 18.8766C298.178 16.3713 296.957 14.5278 295.799 13.3303C294.641 12.1327 293.436 11.2031 292.199 10.5255C290.963 9.848 289.617 9.51711 288.161 9.51711H281.853V9.50135Z" fill="#1BA1BE"/>
</svg>
