<svg width="17" height="17" viewBox="0 0 17 17" fill="none" xmlns="http://www.w3.org/2000/svg">
<path d="M15.7775 14.9061L14.8876 15.7961C14.591 16.0927 14.1275 16.0927 13.8308 15.7961L10.7161 12.6628C10.5678 12.5145 10.4936 12.3291 10.4936 12.1251V11.6246C9.38123 12.4959 8.00927 12.9965 6.48899 12.9965C2.91078 12.9965 0 10.0857 0 6.50753C0 2.91078 2.91078 0 6.50753 0C10.1043 0 13.0151 2.91078 13.0151 6.50753C13.0151 8.00927 12.4959 9.39977 11.6431 10.5122H12.1437C12.3476 10.5122 12.533 10.5863 12.6813 10.7346L15.7961 13.8494C16.0742 14.1275 16.0742 14.6095 15.7775 14.9061ZM10.5122 6.50753C10.5122 4.30127 8.71379 2.5029 6.50753 2.5029C4.30127 2.5029 2.5029 4.30127 2.5029 6.50753C2.5029 8.71379 4.30127 10.5122 6.50753 10.5122C8.71379 10.5122 10.5122 8.71379 10.5122 6.50753Z" fill="#00687F"/>
</svg>
